<mxfile host="app.diagrams.net" modified="2024-06-21T08:08:13.398Z" agent="Mozilla/5.0 (Windows NT 10.0; Win64; x64) AppleWebKit/537.36 (KHTML, like Gecko) Chrome/126.0.0.0 Safari/537.36" version="24.6.0" etag="aB35NyEhQMiUfmnFQOrD" type="github">
  <diagram name="Halaman-1" id="qFyyB9yg13j2oTQ8tJDh">
    <mxGraphModel>
      <root>
        <mxCell id="0" />
        <mxCell id="1" parent="0" />
      </root>
    </mxGraphModel>
  </diagram>
</mxfile>
